<svg width="191" height="25" viewBox="0 0 191 25" fill="none" xmlns="http://www.w3.org/2000/svg">
<path d="M12.5009 15.8964C14.8012 15.8964 16.6659 14.0317 16.6659 11.7314C16.6659 9.43114 14.8012 7.56641 12.5009 7.56641C10.2007 7.56641 8.33594 9.43114 8.33594 11.7314C8.33594 14.0317 10.2007 15.8964 12.5009 15.8964Z" fill="white"/>
<path d="M24.2366 9.043C22.6216 6.413 18.9476 2 12.5006 2C6.05363 2 2.37863 6.413 0.763626 9.043C0.264422 9.85052 0 10.7811 0 11.7305C0 12.6799 0.264422 13.6105 0.763626 14.418C2.37863 17.049 6.05263 21.465 12.4996 21.465C18.9466 21.465 22.6206 17.052 24.2356 14.422C24.7358 13.6141 25.0008 12.6828 25.001 11.7326C25.0012 10.7825 24.7365 9.85107 24.2366 9.043ZM12.4996 17.978C11.2639 17.978 10.0559 17.6116 9.02842 16.925C8.00094 16.2385 7.20012 15.2627 6.72723 14.121C6.25433 12.9793 6.1306 11.7231 6.37168 10.5111C6.61276 9.29908 7.20782 8.18579 8.08162 7.312C8.95542 6.4382 10.0687 5.84314 11.2807 5.60205C12.4927 5.36097 13.749 5.4847 14.8906 5.9576C16.0323 6.4305 17.0081 7.23132 17.6946 8.2588C18.3812 9.28627 18.7476 10.4943 18.7476 11.73C18.7476 12.5505 18.586 13.363 18.272 14.121C17.958 14.879 17.4978 15.5678 16.9176 16.148C16.3374 16.7282 15.6487 17.1884 14.8906 17.5024C14.1326 17.8164 13.3201 17.978 12.4996 17.978Z" fill="white"/>
<path d="M99.7715 2C98.6934 2.01718 97.639 2.31233 96.7146 2.85569C95.7903 3.39904 95.0286 4.17139 94.5064 5.09483C93.9835 4.17008 93.2204 3.39689 92.2943 2.85345C91.3681 2.31002 90.3118 2.01561 89.2322 2C87.5123 2.07306 85.8919 2.80953 84.725 4.04848C83.5581 5.28744 82.9396 6.92815 83.0047 8.6121C83.0047 14.9657 93.5016 22.3029 93.9479 22.6163L94.5 23L95.0521 22.6163C95.4984 22.3065 105.995 14.9666 105.995 8.6121C106.06 6.92874 105.442 5.28856 104.276 4.04971C103.11 2.81085 101.491 2.07398 99.7715 2Z" fill="white"/>
<path d="M190.284 4.19177C189.996 3.84471 189.635 3.56558 189.227 3.3742C188.819 3.18283 188.374 3.0839 187.923 3.08446H171.349L171.306 2.72357C171.218 1.97345 170.858 1.28183 170.295 0.77983C169.733 0.277831 169.006 0.000351416 168.253 0L168.025 0C167.753 0 167.493 0.108323 167.3 0.301139C167.108 0.493955 167 0.755469 167 1.02815C167 1.30083 167.108 1.56235 167.3 1.75516C167.493 1.94798 167.753 2.0563 168.025 2.0563H168.253C168.504 2.05634 168.746 2.14879 168.934 2.31613C169.121 2.48347 169.241 2.71406 169.271 2.96416L170.681 14.9935C170.828 16.2446 171.427 17.3982 172.366 18.2353C173.304 19.0725 174.516 19.5349 175.772 19.5349H186.478C186.75 19.5349 187.011 19.4266 187.203 19.2337C187.395 19.0409 187.503 18.7794 187.503 18.5067C187.503 18.234 187.395 17.9725 187.203 17.7797C187.011 17.5869 186.75 17.4786 186.478 17.4786H175.772C175.138 17.4768 174.519 17.2782 174.002 16.9101C173.484 16.5419 173.093 16.0223 172.881 15.4223H185.101C186.303 15.4223 187.467 14.9989 188.389 14.226C189.311 13.453 189.933 12.3797 190.146 11.1935L190.951 6.71692C191.031 6.27276 191.013 5.81632 190.898 5.37995C190.783 4.94357 190.573 4.53793 190.284 4.19177Z" fill="white"/>
<path d="M174.256 24.5574C175.489 24.5574 176.489 23.6828 176.489 22.6039C176.489 21.525 175.489 20.6504 174.256 20.6504C173.023 20.6504 172.023 21.525 172.023 22.6039C172.023 23.6828 173.023 24.5574 174.256 24.5574Z" fill="white"/>
<path d="M184.581 24.5574C185.66 24.5574 186.535 23.6828 186.535 22.6039C186.535 21.525 185.66 20.6504 184.581 20.6504C183.502 20.6504 182.628 21.525 182.628 22.6039C182.628 23.6828 183.502 24.5574 184.581 24.5574Z" fill="white"/>
</svg>
