<svg width="374" height="373" viewBox="0 0 374 373" fill="none" xmlns="http://www.w3.org/2000/svg">
<path d="M290.075 118.51C299.771 137.247 308.429 158.182 316.047 181.313C323.666 204.444 321.236 227.464 308.757 250.372C296.279 273.281 277.019 284.456 250.978 283.897C224.936 283.339 201.73 281.885 181.358 279.537C160.986 277.188 135.293 273.811 104.278 269.407C73.2633 265.003 57.4747 247.833 56.9122 217.896C56.3498 187.958 61.0383 160.864 70.9776 136.612C80.917 112.36 94.5362 89.2251 111.835 67.2071C129.134 45.1891 151.477 36.3162 178.863 40.5884C206.249 44.8606 229.207 54.2313 247.737 68.7005C266.267 83.1696 280.379 99.7728 290.075 118.51Z" fill="#FFB820" fill-opacity="0.12"/>
<path d="M154.375 139.9C161.132 130.03 174.63 127.468 184.527 134.139V134.142L184.664 134.236C194.425 140.918 197.039 154.188 190.644 164.059L190.333 164.527C186.115 170.68 179.276 173.996 172.322 173.996C168.214 173.996 164.067 172.84 160.397 170.427L160.044 170.189H160.043C155.398 167.009 152.221 162.25 151.051 156.749L150.944 156.214C149.905 150.667 151.018 145.057 154.073 140.352L154.375 139.9ZM183.273 136.256C174.613 130.325 162.795 132.42 156.681 140.879L156.395 141.286C153.573 145.406 152.468 150.362 153.269 155.288L153.353 155.765C154.276 160.683 156.995 164.971 161.03 167.882L161.425 168.159C170.223 174.185 182.284 171.933 188.304 163.135L188.556 162.767L188.543 162.766C194.168 154.141 192.02 142.57 183.681 136.542L183.273 136.256Z" fill="#383838" stroke="#FFF6E4" stroke-width="0.5"/>
<mask id="path-3-inside-1_122_383" fill="white">
<path d="M254.968 194.987C254.968 194.958 254.956 194.929 254.95 194.9C254.944 194.796 254.927 194.698 254.898 194.606C254.887 194.56 254.864 194.513 254.846 194.467C254.817 194.392 254.783 194.317 254.737 194.242C254.708 194.196 254.679 194.155 254.644 194.115C254.598 194.051 254.54 193.994 254.482 193.942C254.442 193.901 254.402 193.867 254.355 193.838C254.332 193.82 254.309 193.797 254.286 193.78C254.24 193.751 254.188 193.734 254.142 193.711C254.113 193.693 254.084 193.67 254.055 193.659L239.961 187.839C240.018 187.683 240.059 187.515 240.059 187.342V164.951C240.059 164.448 239.805 163.981 239.377 163.709C238.956 163.438 238.425 163.398 237.963 163.611L236.698 164.189C238.205 162.797 239.597 161.307 240.804 159.714C241.029 159.419 241.358 159.263 241.71 159.275L248.501 159.616C250.14 159.708 251.63 158.842 252.335 157.41C253.178 155.707 253.94 153.876 254.598 151.965C255.106 150.458 254.656 148.778 253.449 147.686L248.414 143.137C248.148 142.9 248.027 142.53 248.073 142.155C248.299 140.504 248.414 138.869 248.414 137.299C248.414 135.723 248.299 134.083 248.079 132.449C248.033 132.062 248.154 131.698 248.414 131.467L253.455 126.917C254.662 125.826 255.118 124.151 254.604 122.639C253.951 120.716 253.183 118.885 252.346 117.211C251.653 115.779 250.164 114.901 248.512 114.976L241.71 115.329C241.387 115.34 241.035 115.179 240.804 114.867C238.783 112.251 236.467 109.942 233.921 108.001C233.627 107.776 233.465 107.441 233.482 107.078L233.823 100.293C233.915 98.6938 233.026 97.1521 231.617 96.4591C229.874 95.593 228.037 94.8365 226.172 94.2131C224.648 93.6992 222.968 94.1438 221.882 95.3505L217.35 100.385C217.107 100.657 216.749 100.784 216.368 100.726C213.187 100.293 209.809 100.299 206.639 100.726C206.281 100.772 205.917 100.651 205.68 100.385L201.13 95.3446C200.045 94.1436 198.37 93.699 196.863 94.2071C194.975 94.8365 193.139 95.5929 191.424 96.4532C189.992 97.1461 189.115 98.6474 189.19 100.287L189.542 107.083C189.559 107.436 189.392 107.771 189.086 108.001C186.539 109.942 184.224 112.251 182.197 114.878C182.059 115.057 181.741 115.34 181.291 115.329L174.483 114.976C172.866 114.919 171.353 115.785 170.672 117.194C170.077 118.383 169.569 119.584 169.113 120.791C159.852 121.732 151.572 126.634 146.283 134.36C137.553 147.086 139.377 164.269 150.359 174.9L140.399 189.445C137.864 189.687 135.636 190.963 134.204 193.054L120.473 213.106C117.846 216.946 118.827 222.206 122.667 224.833C124.087 225.803 125.727 226.312 127.413 226.312C127.933 226.312 128.464 226.265 128.984 226.167C131.201 225.752 133.124 224.499 134.394 222.645L148.125 202.592C149.395 200.733 149.869 198.493 149.459 196.287C149.407 196.004 149.343 195.739 149.268 195.49L159.2 180.986C163.397 182.914 167.895 183.873 172.376 183.873C178.947 183.873 185.46 181.812 190.928 177.833C191.09 177.949 191.235 178.076 191.419 178.174C191.691 178.307 191.979 178.434 192.257 178.567V181.713L170.726 190.594C170.691 190.605 170.668 190.629 170.639 190.646C170.593 190.669 170.541 190.686 170.495 190.715C170.466 190.732 170.448 190.756 170.42 190.773C170.379 190.808 170.339 190.842 170.298 190.877C170.241 190.935 170.183 190.992 170.131 191.056C170.102 191.096 170.067 191.137 170.039 191.183C169.992 191.258 169.958 191.333 169.929 191.414C169.912 191.46 169.888 191.5 169.877 191.547C169.848 191.645 169.836 191.749 169.825 191.847C169.819 191.876 169.813 191.905 169.808 191.933V191.945V191.957V214.348C169.808 214.908 170.125 215.422 170.627 215.67L193.06 226.889C193.077 226.9 193.1 226.895 193.118 226.9C193.308 226.987 193.516 227.045 193.736 227.045C193.961 227.045 194.169 226.987 194.359 226.895C194.371 226.889 194.388 226.889 194.4 226.883L209.326 219.417L230.298 229.897C230.298 229.897 230.31 229.909 230.316 229.909C230.344 229.926 230.373 229.932 230.402 229.949L230.431 229.961H230.437C230.645 230.065 230.864 230.128 231.089 230.128C231.13 230.128 231.17 230.099 231.216 230.099C231.355 230.088 231.493 230.053 231.621 230.001C231.661 229.984 231.707 229.99 231.748 229.972L254.18 218.753C254.682 218.505 255 217.991 255 217.431V195.04V195.023V195.011L254.968 194.987ZM229.579 226.225L210.102 216.49V197.129L215.501 199.658C215.513 199.664 215.518 199.664 215.53 199.664C215.542 199.669 215.553 199.681 215.565 199.687L215.726 199.756L229.573 206.211V226.23L229.579 226.225ZM231.063 203.637L219.786 198.377L236.952 189.791L249.776 195.086L231.063 203.637ZM202.926 199.589L207.152 197.661V204.186L202.926 206.31V199.589ZM214.659 195.981L209.849 193.74L195.189 186.419V179.79C195.749 180.004 196.291 180.2 196.828 180.379C198.335 180.887 200.016 180.437 201.107 179.23L205.668 174.178C205.888 173.929 206.246 173.814 206.633 173.866C207.285 173.953 207.932 174.016 208.579 174.068C208.815 174.085 209.046 174.091 209.283 174.108C209.647 174.132 210.005 174.155 210.363 174.166L214.653 176.129V195.981L214.659 195.981ZM195.188 203.123L199.969 200.94V208.712C199.969 209.226 200.235 209.7 200.674 209.971C200.911 210.115 201.182 210.19 201.448 210.19C201.673 210.19 201.904 210.138 202.112 210.035L207.152 207.5V217.166L195.188 223.153L195.188 203.123ZM237.097 167.238V186.414L236.243 186.841H236.237L233.211 188.354L217.615 196.149V176.13L218.649 175.657L221.865 179.225C222.027 179.404 222.206 179.572 222.402 179.722V181.714C222.402 182.228 222.667 182.701 223.106 182.973C223.539 183.244 224.088 183.267 224.544 183.036L231.727 179.427C232.229 179.179 232.541 178.665 232.541 178.105V177.464C232.57 177.441 232.587 177.406 232.616 177.378C232.691 177.308 232.743 177.227 232.813 177.147C232.968 176.968 233.113 176.777 233.234 176.569C233.292 176.471 233.344 176.367 233.396 176.263C233.5 176.049 233.58 175.83 233.644 175.605C233.673 175.501 233.708 175.409 233.731 175.305C233.8 174.97 233.835 174.635 233.811 174.288L233.54 168.861L237.097 167.232L237.097 167.238ZM173.3 118.476C173.473 118.118 173.895 117.893 174.316 117.905L181.118 118.257C182.44 118.332 183.71 117.726 184.525 116.652C186.384 114.238 188.515 112.113 190.859 110.329C191.939 109.509 192.545 108.227 192.476 106.905L192.123 100.115C192.106 99.6759 192.337 99.2602 192.712 99.0755C194.318 98.2729 196.021 97.5685 197.788 96.9794C198.18 96.8466 198.625 96.9679 198.92 97.297L203.464 102.326C204.353 103.331 205.687 103.822 207.032 103.625C209.931 103.233 213.049 103.233 215.959 103.625C217.298 103.81 218.638 103.331 219.539 102.338L224.077 97.2969C224.366 96.9735 224.828 96.8465 225.226 96.9851C226.97 97.5682 228.679 98.2727 230.307 99.0811C230.665 99.2601 230.896 99.6758 230.873 100.103L230.533 106.899C230.463 108.227 231.064 109.509 232.132 110.323C234.476 112.107 236.601 114.232 238.46 116.634C239.286 117.714 240.545 118.314 241.873 118.251L248.663 117.899C249.108 117.876 249.512 118.107 249.697 118.488C250.482 120.064 251.198 121.773 251.804 123.563C251.937 123.944 251.804 124.4 251.475 124.695L246.446 129.239C245.464 130.105 244.979 131.433 245.147 132.808C245.355 134.332 245.459 135.833 245.459 137.277C245.459 138.714 245.355 140.21 245.141 141.757C244.979 143.12 245.447 144.413 246.429 145.308L251.469 149.858C251.799 150.153 251.926 150.609 251.799 150.984C251.187 152.768 250.471 154.483 249.68 156.077C249.501 156.44 249.108 156.66 248.657 156.643L241.861 156.302C240.522 156.227 239.263 156.827 238.449 157.901C237.219 159.518 235.799 161.048 234.211 162.463C233.628 163.006 232.981 163.554 232.126 164.23C231.052 165.044 230.458 166.32 230.527 167.625L230.544 167.983C230.544 167.989 230.538 168 230.544 168.006L230.867 174.45C230.891 174.854 230.683 175.247 230.336 175.443C230.313 175.454 230.284 175.478 230.25 175.495C228.639 176.274 226.941 176.979 225.197 177.573C224.978 177.649 224.718 177.637 224.476 177.527C224.314 177.458 224.17 177.354 224.066 177.244L219.527 172.198C218.765 171.355 217.674 170.887 216.536 170.887C216.352 170.887 216.161 170.899 215.97 170.927C214.383 171.13 212.922 171.228 211.501 171.228C211.259 171.233 211.039 171.228 210.751 171.216C209.532 171.187 208.274 171.095 207.032 170.933C205.675 170.748 204.336 171.222 203.47 172.203L198.914 177.244C198.619 177.573 198.163 177.706 197.776 177.573C196.691 177.21 195.553 176.765 194.3 176.228C194 176.09 193.7 175.951 193.405 175.812C193.85 175.42 194.295 174.998 194.762 174.542C196.125 173.168 197.366 171.667 198.452 170.079C199.035 169.224 199.474 168.508 199.809 167.879C200.785 166.21 201.616 164.385 202.28 162.463C202.529 161.752 202.742 161.019 202.933 160.274C202.979 160.095 203.025 159.922 203.071 159.743C203.112 159.581 203.158 159.42 203.198 159.252C203.273 159.281 203.348 159.298 203.424 159.327C204.012 159.541 204.601 159.731 205.196 159.899C205.375 159.951 205.56 159.997 205.745 160.043C206.432 160.217 207.125 160.372 207.817 160.476C209.013 160.667 210.248 160.759 211.49 160.759C214.781 160.759 217.963 160.09 220.936 158.773C229.464 155.031 234.973 146.59 234.973 137.27C234.973 124.313 224.435 113.77 211.483 113.77C210.912 113.77 210.346 113.793 209.78 113.834C209.59 113.845 209.405 113.874 209.22 113.892C208.845 113.926 208.469 113.961 208.1 114.019C207.88 114.048 207.667 114.094 207.447 114.134C207.113 114.192 206.783 114.25 206.454 114.319C206.223 114.371 205.998 114.429 205.773 114.486C205.461 114.561 205.155 114.642 204.849 114.729C204.618 114.798 204.387 114.873 204.162 114.948C203.868 115.046 203.573 115.145 203.279 115.249C203.048 115.335 202.822 115.428 202.597 115.52C202.314 115.635 202.031 115.751 201.754 115.878C201.529 115.982 201.31 116.086 201.09 116.195C200.819 116.328 200.547 116.467 200.282 116.611C200.068 116.727 199.855 116.848 199.641 116.969C199.381 117.125 199.121 117.281 198.861 117.443C198.654 117.575 198.451 117.708 198.249 117.847C197.995 118.02 197.753 118.199 197.505 118.378C197.308 118.522 197.112 118.667 196.921 118.817C196.679 119.007 196.442 119.21 196.205 119.412C196.026 119.568 195.842 119.718 195.668 119.879C195.432 120.093 195.206 120.318 194.981 120.538C194.814 120.699 194.646 120.861 194.485 121.028C194.254 121.271 194.034 121.519 193.815 121.773C193.671 121.935 193.526 122.097 193.388 122.264C193.151 122.553 192.92 122.853 192.695 123.153C192.591 123.298 192.475 123.43 192.371 123.575C192.048 124.025 191.736 124.493 191.442 124.966C191.43 124.984 191.419 125.001 191.413 125.018C191.142 125.463 190.887 125.913 190.645 126.375C190.501 126.271 190.356 126.173 190.218 126.081C189.507 125.596 188.78 125.145 188.041 124.724C187.781 124.574 187.515 124.447 187.255 124.308C186.77 124.048 186.28 123.788 185.783 123.552C185.471 123.407 185.154 123.274 184.842 123.142C184.38 122.94 183.918 122.749 183.45 122.57C183.121 122.449 182.792 122.339 182.463 122.224C181.99 122.062 181.51 121.912 181.031 121.773C180.708 121.681 180.384 121.594 180.061 121.513C179.553 121.386 179.039 121.271 178.525 121.173C178.219 121.115 177.919 121.051 177.613 121.005C177.058 120.913 176.498 120.844 175.944 120.78C175.667 120.751 175.39 120.711 175.113 120.688C174.524 120.636 173.929 120.613 173.334 120.601C173.069 120.595 172.809 120.578 172.543 120.578C172.468 120.578 172.393 120.572 172.318 120.572C172.618 119.868 172.942 119.169 173.288 118.465L173.3 118.476ZM201.142 139.107C200.998 138.789 200.836 138.483 200.686 138.172C200.542 137.883 200.409 137.594 200.259 137.311C200.092 136.999 199.913 136.699 199.734 136.393C199.578 136.122 199.422 135.845 199.26 135.579C199.075 135.279 198.873 134.984 198.677 134.69C198.504 134.424 198.33 134.164 198.146 133.904C197.944 133.616 197.73 133.339 197.516 133.056C197.32 132.796 197.124 132.542 196.922 132.294C196.702 132.022 196.477 131.762 196.246 131.497C196.027 131.248 195.807 130.994 195.582 130.752C195.351 130.504 195.114 130.255 194.872 130.013C194.629 129.764 194.381 129.522 194.127 129.285C193.89 129.06 193.648 128.835 193.399 128.615C193.278 128.506 193.163 128.39 193.036 128.281C193.07 128.211 193.099 128.136 193.134 128.067C193.238 127.865 193.347 127.663 193.457 127.461C193.59 127.224 193.717 126.987 193.856 126.756C193.971 126.56 194.092 126.369 194.219 126.179C194.364 125.954 194.508 125.728 194.664 125.515C194.797 125.33 194.93 125.145 195.068 124.966C195.224 124.753 195.386 124.545 195.553 124.343C195.697 124.169 195.842 123.996 195.992 123.823C196.165 123.627 196.338 123.43 196.517 123.24C196.673 123.078 196.829 122.916 196.985 122.755C197.17 122.57 197.36 122.391 197.551 122.212C197.718 122.062 197.88 121.912 198.053 121.762C198.25 121.594 198.452 121.427 198.654 121.265C198.827 121.127 199.006 120.988 199.185 120.849C199.393 120.693 199.607 120.543 199.82 120.393C200.005 120.266 200.19 120.139 200.374 120.018C200.594 119.874 200.819 119.741 201.044 119.608C201.235 119.492 201.425 119.383 201.622 119.273C201.853 119.146 202.089 119.031 202.326 118.909C202.522 118.811 202.719 118.713 202.921 118.621C203.163 118.511 203.412 118.407 203.654 118.303C203.856 118.222 204.058 118.136 204.26 118.055C204.514 117.957 204.774 117.876 205.034 117.789C205.236 117.72 205.438 117.651 205.646 117.587C205.912 117.506 206.189 117.443 206.46 117.373C206.662 117.321 206.865 117.264 207.067 117.217C207.355 117.154 207.65 117.108 207.938 117.056C208.135 117.021 208.325 116.981 208.516 116.952C208.839 116.906 209.168 116.871 209.497 116.842C209.665 116.825 209.832 116.802 210 116.79C210.496 116.756 210.999 116.732 211.507 116.732C222.83 116.732 232.04 125.948 232.04 137.276C232.04 145.423 227.224 152.797 219.764 156.071C217.16 157.226 214.383 157.809 211.507 157.809C210.416 157.809 209.336 157.722 208.291 157.56C207.598 157.451 206.911 157.295 206.23 157.11C206.097 157.075 205.959 157.041 205.826 157C205.167 156.81 204.509 156.585 203.868 156.331C203.828 156.313 203.782 156.296 203.741 156.279C203.764 156.105 203.77 155.938 203.793 155.765C203.828 155.453 203.857 155.147 203.886 154.835C203.915 154.46 203.938 154.084 203.961 153.709C203.978 153.397 203.99 153.091 203.995 152.78C204.001 152.404 204.001 152.035 203.99 151.665C203.984 151.353 203.978 151.047 203.966 150.735C203.949 150.366 203.92 150.002 203.891 149.633C203.868 149.321 203.845 149.015 203.811 148.709C203.77 148.345 203.718 147.981 203.66 147.618C203.614 147.311 203.574 147.005 203.522 146.699C203.458 146.341 203.378 145.983 203.302 145.625C203.239 145.325 203.181 145.019 203.106 144.725C203.02 144.367 202.916 144.014 202.817 143.656C202.737 143.368 202.662 143.068 202.575 142.779C202.459 142.398 202.315 142.022 202.182 141.647C201.998 141.122 201.795 140.596 201.582 140.082C201.443 139.753 201.316 139.418 201.166 139.089L201.142 139.107ZM145.666 200.89L131.935 220.942C131.109 222.149 129.862 222.963 128.418 223.229C126.975 223.494 125.52 223.194 124.313 222.363C121.819 220.654 121.184 217.235 122.887 214.741L136.618 194.688C137.64 193.199 139.32 192.315 141.133 192.315H141.179C142.276 192.315 143.327 192.644 144.234 193.262C145.134 193.88 145.822 194.746 146.243 195.82C146.359 196.091 146.451 196.397 146.52 196.784C146.792 198.216 146.48 199.671 145.654 200.878L145.666 200.89ZM147.698 192.483C147.536 192.28 147.346 192.096 147.161 191.911C147.063 191.813 146.982 191.703 146.878 191.611C146.578 191.328 146.255 191.074 145.908 190.837C145.567 190.6 145.204 190.392 144.834 190.213C144.684 190.138 144.528 190.092 144.378 190.029C144.159 189.936 143.945 189.838 143.72 189.763L152.543 176.881C152.589 176.916 152.635 176.95 152.681 176.985C153.259 177.447 153.859 177.892 154.483 178.319C155.118 178.746 155.736 179.133 156.342 179.491C156.4 179.526 156.457 179.566 156.515 179.601L147.692 192.482L147.698 192.483ZM159.327 177.747C158.357 177.262 157.387 176.685 156.377 176.015C156.301 175.963 156.226 175.922 156.151 175.87C155.788 175.622 155.441 175.357 155.1 175.097C154.454 174.606 153.824 174.104 153.235 173.572C142.513 164.016 140.561 147.866 148.697 136.001C153.651 128.76 161.504 124.25 170.252 123.615C171.031 123.557 171.805 123.529 172.578 123.534C172.844 123.534 173.11 123.557 173.375 123.563C173.872 123.581 174.368 123.598 174.859 123.638C175.177 123.667 175.489 123.708 175.8 123.742C176.245 123.794 176.684 123.846 177.123 123.921C177.446 123.973 177.764 124.037 178.081 124.106C178.508 124.193 178.93 124.285 179.357 124.389C179.675 124.47 179.987 124.551 180.298 124.643C180.72 124.764 181.147 124.897 181.563 125.041C181.863 125.145 182.163 125.244 182.458 125.359C182.891 125.521 183.318 125.705 183.746 125.89C184.017 126.006 184.294 126.121 184.565 126.248C185.027 126.468 185.484 126.71 185.94 126.953C186.165 127.074 186.39 127.184 186.609 127.311C187.279 127.697 187.937 128.102 188.584 128.54C189.15 128.922 189.722 129.349 190.305 129.828C196.881 135.088 200.733 142.935 201.027 151.192C201.097 153.097 200.975 155.026 200.652 156.943V156.949C200.392 158.525 200.005 160.055 199.503 161.499C198.902 163.242 198.152 164.888 197.245 166.447C196.934 167.036 196.558 167.648 196.033 168.416C195.045 169.854 193.919 171.216 192.695 172.452C191.806 173.33 190.975 174.063 190.137 174.71C181.39 181.638 169.31 182.822 159.344 177.741L159.327 177.747ZM192.453 188.111C192.597 188.342 192.799 188.533 193.047 188.654L205.796 195.023L193.7 200.549L183.283 195.791L174.974 191.997L192.228 184.878V187.332C192.228 187.615 192.308 187.88 192.453 188.111ZM172.746 194.232L190.559 202.368L192.222 203.13V223.154L172.746 213.414V194.232ZM252.012 216.502L232.536 226.243V206.218L233.777 205.652L237.323 204.03V211.801C237.323 212.315 237.588 212.789 238.027 213.06C238.264 213.205 238.535 213.28 238.801 213.28C239.026 213.28 239.257 213.228 239.465 213.124L246.648 209.515C247.144 209.261 247.462 208.753 247.462 208.193V199.399L252.006 197.32V216.496L252.012 216.502ZM244.512 200.757V207.287L240.285 209.412V202.685L244.512 200.757Z"/>
</mask>
<path d="M254.968 194.987C254.968 194.958 254.956 194.929 254.95 194.9C254.944 194.796 254.927 194.698 254.898 194.606C254.887 194.56 254.864 194.513 254.846 194.467C254.817 194.392 254.783 194.317 254.737 194.242C254.708 194.196 254.679 194.155 254.644 194.115C254.598 194.051 254.54 193.994 254.482 193.942C254.442 193.901 254.402 193.867 254.355 193.838C254.332 193.82 254.309 193.797 254.286 193.78C254.24 193.751 254.188 193.734 254.142 193.711C254.113 193.693 254.084 193.67 254.055 193.659L239.961 187.839C240.018 187.683 240.059 187.515 240.059 187.342V164.951C240.059 164.448 239.805 163.981 239.377 163.709C238.956 163.438 238.425 163.398 237.963 163.611L236.698 164.189C238.205 162.797 239.597 161.307 240.804 159.714C241.029 159.419 241.358 159.263 241.71 159.275L248.501 159.616C250.14 159.708 251.63 158.842 252.335 157.41C253.178 155.707 253.94 153.876 254.598 151.965C255.106 150.458 254.656 148.778 253.449 147.686L248.414 143.137C248.148 142.9 248.027 142.53 248.073 142.155C248.299 140.504 248.414 138.869 248.414 137.299C248.414 135.723 248.299 134.083 248.079 132.449C248.033 132.062 248.154 131.698 248.414 131.467L253.455 126.917C254.662 125.826 255.118 124.151 254.604 122.639C253.951 120.716 253.183 118.885 252.346 117.211C251.653 115.779 250.164 114.901 248.512 114.976L241.71 115.329C241.387 115.34 241.035 115.179 240.804 114.867C238.783 112.251 236.467 109.942 233.921 108.001C233.627 107.776 233.465 107.441 233.482 107.078L233.823 100.293C233.915 98.6938 233.026 97.1521 231.617 96.4591C229.874 95.593 228.037 94.8365 226.172 94.2131C224.648 93.6992 222.968 94.1438 221.882 95.3505L217.35 100.385C217.107 100.657 216.749 100.784 216.368 100.726C213.187 100.293 209.809 100.299 206.639 100.726C206.281 100.772 205.917 100.651 205.68 100.385L201.13 95.3446C200.045 94.1436 198.37 93.699 196.863 94.2071C194.975 94.8365 193.139 95.5929 191.424 96.4532C189.992 97.1461 189.115 98.6474 189.19 100.287L189.542 107.083C189.559 107.436 189.392 107.771 189.086 108.001C186.539 109.942 184.224 112.251 182.197 114.878C182.059 115.057 181.741 115.34 181.291 115.329L174.483 114.976C172.866 114.919 171.353 115.785 170.672 117.194C170.077 118.383 169.569 119.584 169.113 120.791C159.852 121.732 151.572 126.634 146.283 134.36C137.553 147.086 139.377 164.269 150.359 174.9L140.399 189.445C137.864 189.687 135.636 190.963 134.204 193.054L120.473 213.106C117.846 216.946 118.827 222.206 122.667 224.833C124.087 225.803 125.727 226.312 127.413 226.312C127.933 226.312 128.464 226.265 128.984 226.167C131.201 225.752 133.124 224.499 134.394 222.645L148.125 202.592C149.395 200.733 149.869 198.493 149.459 196.287C149.407 196.004 149.343 195.739 149.268 195.49L159.2 180.986C163.397 182.914 167.895 183.873 172.376 183.873C178.947 183.873 185.46 181.812 190.928 177.833C191.09 177.949 191.235 178.076 191.419 178.174C191.691 178.307 191.979 178.434 192.257 178.567V181.713L170.726 190.594C170.691 190.605 170.668 190.629 170.639 190.646C170.593 190.669 170.541 190.686 170.495 190.715C170.466 190.732 170.448 190.756 170.42 190.773C170.379 190.808 170.339 190.842 170.298 190.877C170.241 190.935 170.183 190.992 170.131 191.056C170.102 191.096 170.067 191.137 170.039 191.183C169.992 191.258 169.958 191.333 169.929 191.414C169.912 191.46 169.888 191.5 169.877 191.547C169.848 191.645 169.836 191.749 169.825 191.847C169.819 191.876 169.813 191.905 169.808 191.933V191.945V191.957V214.348C169.808 214.908 170.125 215.422 170.627 215.67L193.06 226.889C193.077 226.9 193.1 226.895 193.118 226.9C193.308 226.987 193.516 227.045 193.736 227.045C193.961 227.045 194.169 226.987 194.359 226.895C194.371 226.889 194.388 226.889 194.4 226.883L209.326 219.417L230.298 229.897C230.298 229.897 230.31 229.909 230.316 229.909C230.344 229.926 230.373 229.932 230.402 229.949L230.431 229.961H230.437C230.645 230.065 230.864 230.128 231.089 230.128C231.13 230.128 231.17 230.099 231.216 230.099C231.355 230.088 231.493 230.053 231.621 230.001C231.661 229.984 231.707 229.99 231.748 229.972L254.18 218.753C254.682 218.505 255 217.991 255 217.431V195.04V195.023V195.011L254.968 194.987ZM229.579 226.225L210.102 216.49V197.129L215.501 199.658C215.513 199.664 215.518 199.664 215.53 199.664C215.542 199.669 215.553 199.681 215.565 199.687L215.726 199.756L229.573 206.211V226.23L229.579 226.225ZM231.063 203.637L219.786 198.377L236.952 189.791L249.776 195.086L231.063 203.637ZM202.926 199.589L207.152 197.661V204.186L202.926 206.31V199.589ZM214.659 195.981L209.849 193.74L195.189 186.419V179.79C195.749 180.004 196.291 180.2 196.828 180.379C198.335 180.887 200.016 180.437 201.107 179.23L205.668 174.178C205.888 173.929 206.246 173.814 206.633 173.866C207.285 173.953 207.932 174.016 208.579 174.068C208.815 174.085 209.046 174.091 209.283 174.108C209.647 174.132 210.005 174.155 210.363 174.166L214.653 176.129V195.981L214.659 195.981ZM195.188 203.123L199.969 200.94V208.712C199.969 209.226 200.235 209.7 200.674 209.971C200.911 210.115 201.182 210.19 201.448 210.19C201.673 210.19 201.904 210.138 202.112 210.035L207.152 207.5V217.166L195.188 223.153L195.188 203.123ZM237.097 167.238V186.414L236.243 186.841H236.237L233.211 188.354L217.615 196.149V176.13L218.649 175.657L221.865 179.225C222.027 179.404 222.206 179.572 222.402 179.722V181.714C222.402 182.228 222.667 182.701 223.106 182.973C223.539 183.244 224.088 183.267 224.544 183.036L231.727 179.427C232.229 179.179 232.541 178.665 232.541 178.105V177.464C232.57 177.441 232.587 177.406 232.616 177.378C232.691 177.308 232.743 177.227 232.813 177.147C232.968 176.968 233.113 176.777 233.234 176.569C233.292 176.471 233.344 176.367 233.396 176.263C233.5 176.049 233.58 175.83 233.644 175.605C233.673 175.501 233.708 175.409 233.731 175.305C233.8 174.97 233.835 174.635 233.811 174.288L233.54 168.861L237.097 167.232L237.097 167.238ZM173.3 118.476C173.473 118.118 173.895 117.893 174.316 117.905L181.118 118.257C182.44 118.332 183.71 117.726 184.525 116.652C186.384 114.238 188.515 112.113 190.859 110.329C191.939 109.509 192.545 108.227 192.476 106.905L192.123 100.115C192.106 99.6759 192.337 99.2602 192.712 99.0755C194.318 98.2729 196.021 97.5685 197.788 96.9794C198.18 96.8466 198.625 96.9679 198.92 97.297L203.464 102.326C204.353 103.331 205.687 103.822 207.032 103.625C209.931 103.233 213.049 103.233 215.959 103.625C217.298 103.81 218.638 103.331 219.539 102.338L224.077 97.2969C224.366 96.9735 224.828 96.8465 225.226 96.9851C226.97 97.5682 228.679 98.2727 230.307 99.0811C230.665 99.2601 230.896 99.6758 230.873 100.103L230.533 106.899C230.463 108.227 231.064 109.509 232.132 110.323C234.476 112.107 236.601 114.232 238.46 116.634C239.286 117.714 240.545 118.314 241.873 118.251L248.663 117.899C249.108 117.876 249.512 118.107 249.697 118.488C250.482 120.064 251.198 121.773 251.804 123.563C251.937 123.944 251.804 124.4 251.475 124.695L246.446 129.239C245.464 130.105 244.979 131.433 245.147 132.808C245.355 134.332 245.459 135.833 245.459 137.277C245.459 138.714 245.355 140.21 245.141 141.757C244.979 143.12 245.447 144.413 246.429 145.308L251.469 149.858C251.799 150.153 251.926 150.609 251.799 150.984C251.187 152.768 250.471 154.483 249.68 156.077C249.501 156.44 249.108 156.66 248.657 156.643L241.861 156.302C240.522 156.227 239.263 156.827 238.449 157.901C237.219 159.518 235.799 161.048 234.211 162.463C233.628 163.006 232.981 163.554 232.126 164.23C231.052 165.044 230.458 166.32 230.527 167.625L230.544 167.983C230.544 167.989 230.538 168 230.544 168.006L230.867 174.45C230.891 174.854 230.683 175.247 230.336 175.443C230.313 175.454 230.284 175.478 230.25 175.495C228.639 176.274 226.941 176.979 225.197 177.573C224.978 177.649 224.718 177.637 224.476 177.527C224.314 177.458 224.17 177.354 224.066 177.244L219.527 172.198C218.765 171.355 217.674 170.887 216.536 170.887C216.352 170.887 216.161 170.899 215.97 170.927C214.383 171.13 212.922 171.228 211.501 171.228C211.259 171.233 211.039 171.228 210.751 171.216C209.532 171.187 208.274 171.095 207.032 170.933C205.675 170.748 204.336 171.222 203.47 172.203L198.914 177.244C198.619 177.573 198.163 177.706 197.776 177.573C196.691 177.21 195.553 176.765 194.3 176.228C194 176.09 193.7 175.951 193.405 175.812C193.85 175.42 194.295 174.998 194.762 174.542C196.125 173.168 197.366 171.667 198.452 170.079C199.035 169.224 199.474 168.508 199.809 167.879C200.785 166.21 201.616 164.385 202.28 162.463C202.529 161.752 202.742 161.019 202.933 160.274C202.979 160.095 203.025 159.922 203.071 159.743C203.112 159.581 203.158 159.42 203.198 159.252C203.273 159.281 203.348 159.298 203.424 159.327C204.012 159.541 204.601 159.731 205.196 159.899C205.375 159.951 205.56 159.997 205.745 160.043C206.432 160.217 207.125 160.372 207.817 160.476C209.013 160.667 210.248 160.759 211.49 160.759C214.781 160.759 217.963 160.09 220.936 158.773C229.464 155.031 234.973 146.59 234.973 137.27C234.973 124.313 224.435 113.77 211.483 113.77C210.912 113.77 210.346 113.793 209.78 113.834C209.59 113.845 209.405 113.874 209.22 113.892C208.845 113.926 208.469 113.961 208.1 114.019C207.88 114.048 207.667 114.094 207.447 114.134C207.113 114.192 206.783 114.25 206.454 114.319C206.223 114.371 205.998 114.429 205.773 114.486C205.461 114.561 205.155 114.642 204.849 114.729C204.618 114.798 204.387 114.873 204.162 114.948C203.868 115.046 203.573 115.145 203.279 115.249C203.048 115.335 202.822 115.428 202.597 115.52C202.314 115.635 202.031 115.751 201.754 115.878C201.529 115.982 201.31 116.086 201.09 116.195C200.819 116.328 200.547 116.467 200.282 116.611C200.068 116.727 199.855 116.848 199.641 116.969C199.381 117.125 199.121 117.281 198.861 117.443C198.654 117.575 198.451 117.708 198.249 117.847C197.995 118.02 197.753 118.199 197.505 118.378C197.308 118.522 197.112 118.667 196.921 118.817C196.679 119.007 196.442 119.21 196.205 119.412C196.026 119.568 195.842 119.718 195.668 119.879C195.432 120.093 195.206 120.318 194.981 120.538C194.814 120.699 194.646 120.861 194.485 121.028C194.254 121.271 194.034 121.519 193.815 121.773C193.671 121.935 193.526 122.097 193.388 122.264C193.151 122.553 192.92 122.853 192.695 123.153C192.591 123.298 192.475 123.43 192.371 123.575C192.048 124.025 191.736 124.493 191.442 124.966C191.43 124.984 191.419 125.001 191.413 125.018C191.142 125.463 190.887 125.913 190.645 126.375C190.501 126.271 190.356 126.173 190.218 126.081C189.507 125.596 188.78 125.145 188.041 124.724C187.781 124.574 187.515 124.447 187.255 124.308C186.77 124.048 186.28 123.788 185.783 123.552C185.471 123.407 185.154 123.274 184.842 123.142C184.38 122.94 183.918 122.749 183.45 122.57C183.121 122.449 182.792 122.339 182.463 122.224C181.99 122.062 181.51 121.912 181.031 121.773C180.708 121.681 180.384 121.594 180.061 121.513C179.553 121.386 179.039 121.271 178.525 121.173C178.219 121.115 177.919 121.051 177.613 121.005C177.058 120.913 176.498 120.844 175.944 120.78C175.667 120.751 175.39 120.711 175.113 120.688C174.524 120.636 173.929 120.613 173.334 120.601C173.069 120.595 172.809 120.578 172.543 120.578C172.468 120.578 172.393 120.572 172.318 120.572C172.618 119.868 172.942 119.169 173.288 118.465L173.3 118.476ZM201.142 139.107C200.998 138.789 200.836 138.483 200.686 138.172C200.542 137.883 200.409 137.594 200.259 137.311C200.092 136.999 199.913 136.699 199.734 136.393C199.578 136.122 199.422 135.845 199.26 135.579C199.075 135.279 198.873 134.984 198.677 134.69C198.504 134.424 198.33 134.164 198.146 133.904C197.944 133.616 197.73 133.339 197.516 133.056C197.32 132.796 197.124 132.542 196.922 132.294C196.702 132.022 196.477 131.762 196.246 131.497C196.027 131.248 195.807 130.994 195.582 130.752C195.351 130.504 195.114 130.255 194.872 130.013C194.629 129.764 194.381 129.522 194.127 129.285C193.89 129.06 193.648 128.835 193.399 128.615C193.278 128.506 193.163 128.39 193.036 128.281C193.07 128.211 193.099 128.136 193.134 128.067C193.238 127.865 193.347 127.663 193.457 127.461C193.59 127.224 193.717 126.987 193.856 126.756C193.971 126.56 194.092 126.369 194.219 126.179C194.364 125.954 194.508 125.728 194.664 125.515C194.797 125.33 194.93 125.145 195.068 124.966C195.224 124.753 195.386 124.545 195.553 124.343C195.697 124.169 195.842 123.996 195.992 123.823C196.165 123.627 196.338 123.43 196.517 123.24C196.673 123.078 196.829 122.916 196.985 122.755C197.17 122.57 197.36 122.391 197.551 122.212C197.718 122.062 197.88 121.912 198.053 121.762C198.25 121.594 198.452 121.427 198.654 121.265C198.827 121.127 199.006 120.988 199.185 120.849C199.393 120.693 199.607 120.543 199.82 120.393C200.005 120.266 200.19 120.139 200.374 120.018C200.594 119.874 200.819 119.741 201.044 119.608C201.235 119.492 201.425 119.383 201.622 119.273C201.853 119.146 202.089 119.031 202.326 118.909C202.522 118.811 202.719 118.713 202.921 118.621C203.163 118.511 203.412 118.407 203.654 118.303C203.856 118.222 204.058 118.136 204.26 118.055C204.514 117.957 204.774 117.876 205.034 117.789C205.236 117.72 205.438 117.651 205.646 117.587C205.912 117.506 206.189 117.443 206.46 117.373C206.662 117.321 206.865 117.264 207.067 117.217C207.355 117.154 207.65 117.108 207.938 117.056C208.135 117.021 208.325 116.981 208.516 116.952C208.839 116.906 209.168 116.871 209.497 116.842C209.665 116.825 209.832 116.802 210 116.79C210.496 116.756 210.999 116.732 211.507 116.732C222.83 116.732 232.04 125.948 232.04 137.276C232.04 145.423 227.224 152.797 219.764 156.071C217.16 157.226 214.383 157.809 211.507 157.809C210.416 157.809 209.336 157.722 208.291 157.56C207.598 157.451 206.911 157.295 206.23 157.11C206.097 157.075 205.959 157.041 205.826 157C205.167 156.81 204.509 156.585 203.868 156.331C203.828 156.313 203.782 156.296 203.741 156.279C203.764 156.105 203.77 155.938 203.793 155.765C203.828 155.453 203.857 155.147 203.886 154.835C203.915 154.46 203.938 154.084 203.961 153.709C203.978 153.397 203.99 153.091 203.995 152.78C204.001 152.404 204.001 152.035 203.99 151.665C203.984 151.353 203.978 151.047 203.966 150.735C203.949 150.366 203.92 150.002 203.891 149.633C203.868 149.321 203.845 149.015 203.811 148.709C203.77 148.345 203.718 147.981 203.66 147.618C203.614 147.311 203.574 147.005 203.522 146.699C203.458 146.341 203.378 145.983 203.302 145.625C203.239 145.325 203.181 145.019 203.106 144.725C203.02 144.367 202.916 144.014 202.817 143.656C202.737 143.368 202.662 143.068 202.575 142.779C202.459 142.398 202.315 142.022 202.182 141.647C201.998 141.122 201.795 140.596 201.582 140.082C201.443 139.753 201.316 139.418 201.166 139.089L201.142 139.107ZM145.666 200.89L131.935 220.942C131.109 222.149 129.862 222.963 128.418 223.229C126.975 223.494 125.52 223.194 124.313 222.363C121.819 220.654 121.184 217.235 122.887 214.741L136.618 194.688C137.64 193.199 139.32 192.315 141.133 192.315H141.179C142.276 192.315 143.327 192.644 144.234 193.262C145.134 193.88 145.822 194.746 146.243 195.82C146.359 196.091 146.451 196.397 146.52 196.784C146.792 198.216 146.48 199.671 145.654 200.878L145.666 200.89ZM147.698 192.483C147.536 192.28 147.346 192.096 147.161 191.911C147.063 191.813 146.982 191.703 146.878 191.611C146.578 191.328 146.255 191.074 145.908 190.837C145.567 190.6 145.204 190.392 144.834 190.213C144.684 190.138 144.528 190.092 144.378 190.029C144.159 189.936 143.945 189.838 143.72 189.763L152.543 176.881C152.589 176.916 152.635 176.95 152.681 176.985C153.259 177.447 153.859 177.892 154.483 178.319C155.118 178.746 155.736 179.133 156.342 179.491C156.4 179.526 156.457 179.566 156.515 179.601L147.692 192.482L147.698 192.483ZM159.327 177.747C158.357 177.262 157.387 176.685 156.377 176.015C156.301 175.963 156.226 175.922 156.151 175.87C155.788 175.622 155.441 175.357 155.1 175.097C154.454 174.606 153.824 174.104 153.235 173.572C142.513 164.016 140.561 147.866 148.697 136.001C153.651 128.76 161.504 124.25 170.252 123.615C171.031 123.557 171.805 123.529 172.578 123.534C172.844 123.534 173.11 123.557 173.375 123.563C173.872 123.581 174.368 123.598 174.859 123.638C175.177 123.667 175.489 123.708 175.8 123.742C176.245 123.794 176.684 123.846 177.123 123.921C177.446 123.973 177.764 124.037 178.081 124.106C178.508 124.193 178.93 124.285 179.357 124.389C179.675 124.47 179.987 124.551 180.298 124.643C180.72 124.764 181.147 124.897 181.563 125.041C181.863 125.145 182.163 125.244 182.458 125.359C182.891 125.521 183.318 125.705 183.746 125.89C184.017 126.006 184.294 126.121 184.565 126.248C185.027 126.468 185.484 126.71 185.94 126.953C186.165 127.074 186.39 127.184 186.609 127.311C187.279 127.697 187.937 128.102 188.584 128.54C189.15 128.922 189.722 129.349 190.305 129.828C196.881 135.088 200.733 142.935 201.027 151.192C201.097 153.097 200.975 155.026 200.652 156.943V156.949C200.392 158.525 200.005 160.055 199.503 161.499C198.902 163.242 198.152 164.888 197.245 166.447C196.934 167.036 196.558 167.648 196.033 168.416C195.045 169.854 193.919 171.216 192.695 172.452C191.806 173.33 190.975 174.063 190.137 174.71C181.39 181.638 169.31 182.822 159.344 177.741L159.327 177.747ZM192.453 188.111C192.597 188.342 192.799 188.533 193.047 188.654L205.796 195.023L193.7 200.549L183.283 195.791L174.974 191.997L192.228 184.878V187.332C192.228 187.615 192.308 187.88 192.453 188.111ZM172.746 194.232L190.559 202.368L192.222 203.13V223.154L172.746 213.414V194.232ZM252.012 216.502L232.536 226.243V206.218L233.777 205.652L237.323 204.03V211.801C237.323 212.315 237.588 212.789 238.027 213.06C238.264 213.205 238.535 213.28 238.801 213.28C239.026 213.28 239.257 213.228 239.465 213.124L246.648 209.515C247.144 209.261 247.462 208.753 247.462 208.193V199.399L252.006 197.32V216.496L252.012 216.502ZM244.512 200.757V207.287L240.285 209.412V202.685L244.512 200.757Z" fill="#383838" stroke="#FFF6E4" stroke-width="0.8" mask="url(#path-3-inside-1_122_383)"/>
</svg>
