<svg width="333" height="337" viewBox="0 0 333 337" fill="none" xmlns="http://www.w3.org/2000/svg">
<path d="M282.229 145.475C288.419 170.186 287.925 193.675 280.748 215.943C273.571 238.21 260.799 255.878 242.43 268.945C224.062 282.012 204.392 287.462 183.419 285.296C162.446 283.129 142.79 277.683 124.449 268.957C106.109 260.231 88.453 246.432 71.4816 227.561C54.5101 208.69 44.1301 183.136 40.3416 150.898C36.553 118.66 49.1529 94.8969 78.1413 79.6082C107.13 64.3194 134.813 62.0245 161.193 72.7232C187.572 83.422 212.792 92.0443 236.853 98.59C260.913 105.136 276.039 120.764 282.229 145.475Z" fill="#F25454" fill-opacity="0.08"/>
<mask id="path-2-inside-1_122_284" fill="white">
<path d="M203.118 191.409C199.299 192.789 195.48 194.169 191.662 195.549C189.106 196.47 186.556 197.396 184.006 198.316C184.066 197.903 184.096 197.491 184.096 197.067C184.096 192.389 180.295 188.577 175.624 188.577H162.62C161.66 188.577 160.868 188.404 159.986 187.998C144.194 180.739 138.486 180.87 125.994 181.157C125.499 181.169 124.993 181.181 124.475 181.193V177.238C124.475 176.312 123.73 175.565 122.807 175.565H106.668C105.745 175.565 105 176.312 105 177.238V221.06C105 221.986 105.745 222.733 106.668 222.733H122.807C123.73 222.733 124.475 221.986 124.475 221.06V216.31C131.629 216.43 132.964 217.111 141.007 221.197C142.133 221.771 143.39 222.41 144.801 223.115C148.817 225.266 152.993 226.341 157.413 226.341C160.964 226.341 164.669 225.648 168.565 224.262C168.583 224.256 168.595 224.25 168.613 224.244L209.266 208.423C213.93 206.727 216.355 201.535 214.675 196.845C212.989 192.155 207.806 189.711 203.124 191.402L203.118 191.409ZM121.132 219.388H108.33V178.91H121.132V219.388ZM208.109 205.288C208.097 205.294 208.085 205.3 208.073 205.3L167.427 221.115C159.611 223.887 152.718 223.57 146.356 220.153C146.344 220.147 146.327 220.135 146.315 220.129C144.897 219.418 143.64 218.778 142.514 218.205C134.186 213.975 132.47 213.103 124.475 212.959V184.533C125.023 184.521 125.553 184.509 126.072 184.497C138.403 184.21 143.51 184.097 158.605 191.033C159.921 191.636 161.196 191.917 162.626 191.917H175.631C178.461 191.917 180.766 194.223 180.766 197.061C180.766 198.178 180.409 199.248 179.73 200.144C179.718 200.156 179.712 200.174 179.706 200.186C179.694 200.204 179.676 200.216 179.664 200.228C178.675 201.482 177.204 202.205 175.631 202.205H154.452C153.529 202.205 152.784 202.952 152.784 203.878C152.784 204.804 153.529 205.551 154.452 205.551H175.631C178.115 205.551 180.438 204.464 182.065 202.564C185.645 201.273 189.226 199.977 192.8 198.686C196.619 197.306 200.437 195.926 204.256 194.546C207.211 193.477 210.476 195.018 211.536 197.975C212.596 200.939 211.065 204.213 208.116 205.276L208.109 205.288ZM225.332 110.342H162.482C162.041 110.342 161.612 110.515 161.302 110.832L147.106 125.081C146.796 125.391 146.617 125.821 146.617 126.264V176.861C146.617 177.787 147.362 178.534 148.285 178.534H211.136C211.576 178.534 211.999 178.361 212.315 178.044L226.511 163.807C226.821 163.497 227 163.066 227 162.624V112.014C227 111.088 226.255 110.342 225.332 110.342ZM196.534 113.687L185.662 124.585H177.077L187.937 113.687H196.534ZM184.685 127.936V134.263H174.724V127.936H184.685ZM163.173 113.687H183.225L172.365 124.585H152.313L163.173 113.687ZM209.467 175.183H149.958V127.93H171.394V135.93C171.394 136.856 172.138 137.603 173.062 137.603H186.364C187.288 137.603 188.033 136.856 188.033 135.93V127.93H209.474V175.183H209.467ZM210.438 124.591H190.38L201.253 113.693H221.304L210.444 124.591H210.438ZM223.664 161.925L212.803 172.817V126.951L223.664 116.054V161.925ZM176.714 158.795L185.668 149.821C186.323 149.17 187.378 149.17 188.027 149.821C188.676 150.472 188.676 151.536 188.027 152.187L177.894 162.343C177.566 162.672 177.143 162.833 176.714 162.833C176.285 162.833 175.862 162.672 175.534 162.343L171.388 158.185C170.739 157.534 170.739 156.47 171.388 155.819C172.037 155.168 173.098 155.168 173.747 155.819L176.714 158.795ZM163.608 156.082C163.608 164.984 170.834 172.232 179.711 172.232C188.587 172.232 195.814 164.985 195.814 156.082C195.814 147.18 188.588 139.933 179.711 139.933C170.835 139.933 163.608 147.18 163.608 156.082ZM192.478 156.082C192.478 163.144 186.753 168.885 179.711 168.885C172.669 168.885 166.944 163.144 166.944 156.082C166.944 149.02 172.669 143.279 179.711 143.279C186.753 143.279 192.478 149.02 192.478 156.082Z"/>
</mask>
<path d="M203.118 191.409C199.299 192.789 195.48 194.169 191.662 195.549C189.106 196.47 186.556 197.396 184.006 198.316C184.066 197.903 184.096 197.491 184.096 197.067C184.096 192.389 180.295 188.577 175.624 188.577H162.62C161.66 188.577 160.868 188.404 159.986 187.998C144.194 180.739 138.486 180.87 125.994 181.157C125.499 181.169 124.993 181.181 124.475 181.193V177.238C124.475 176.312 123.73 175.565 122.807 175.565H106.668C105.745 175.565 105 176.312 105 177.238V221.06C105 221.986 105.745 222.733 106.668 222.733H122.807C123.73 222.733 124.475 221.986 124.475 221.06V216.31C131.629 216.43 132.964 217.111 141.007 221.197C142.133 221.771 143.39 222.41 144.801 223.115C148.817 225.266 152.993 226.341 157.413 226.341C160.964 226.341 164.669 225.648 168.565 224.262C168.583 224.256 168.595 224.25 168.613 224.244L209.266 208.423C213.93 206.727 216.355 201.535 214.675 196.845C212.989 192.155 207.806 189.711 203.124 191.402L203.118 191.409ZM121.132 219.388H108.33V178.91H121.132V219.388ZM208.109 205.288C208.097 205.294 208.085 205.3 208.073 205.3L167.427 221.115C159.611 223.887 152.718 223.57 146.356 220.153C146.344 220.147 146.327 220.135 146.315 220.129C144.897 219.418 143.64 218.778 142.514 218.205C134.186 213.975 132.47 213.103 124.475 212.959V184.533C125.023 184.521 125.553 184.509 126.072 184.497C138.403 184.21 143.51 184.097 158.605 191.033C159.921 191.636 161.196 191.917 162.626 191.917H175.631C178.461 191.917 180.766 194.223 180.766 197.061C180.766 198.178 180.409 199.248 179.73 200.144C179.718 200.156 179.712 200.174 179.706 200.186C179.694 200.204 179.676 200.216 179.664 200.228C178.675 201.482 177.204 202.205 175.631 202.205H154.452C153.529 202.205 152.784 202.952 152.784 203.878C152.784 204.804 153.529 205.551 154.452 205.551H175.631C178.115 205.551 180.438 204.464 182.065 202.564C185.645 201.273 189.226 199.977 192.8 198.686C196.619 197.306 200.437 195.926 204.256 194.546C207.211 193.477 210.476 195.018 211.536 197.975C212.596 200.939 211.065 204.213 208.116 205.276L208.109 205.288ZM225.332 110.342H162.482C162.041 110.342 161.612 110.515 161.302 110.832L147.106 125.081C146.796 125.391 146.617 125.821 146.617 126.264V176.861C146.617 177.787 147.362 178.534 148.285 178.534H211.136C211.576 178.534 211.999 178.361 212.315 178.044L226.511 163.807C226.821 163.497 227 163.066 227 162.624V112.014C227 111.088 226.255 110.342 225.332 110.342ZM196.534 113.687L185.662 124.585H177.077L187.937 113.687H196.534ZM184.685 127.936V134.263H174.724V127.936H184.685ZM163.173 113.687H183.225L172.365 124.585H152.313L163.173 113.687ZM209.467 175.183H149.958V127.93H171.394V135.93C171.394 136.856 172.138 137.603 173.062 137.603H186.364C187.288 137.603 188.033 136.856 188.033 135.93V127.93H209.474V175.183H209.467ZM210.438 124.591H190.38L201.253 113.693H221.304L210.444 124.591H210.438ZM223.664 161.925L212.803 172.817V126.951L223.664 116.054V161.925ZM176.714 158.795L185.668 149.821C186.323 149.17 187.378 149.17 188.027 149.821C188.676 150.472 188.676 151.536 188.027 152.187L177.894 162.343C177.566 162.672 177.143 162.833 176.714 162.833C176.285 162.833 175.862 162.672 175.534 162.343L171.388 158.185C170.739 157.534 170.739 156.47 171.388 155.819C172.037 155.168 173.098 155.168 173.747 155.819L176.714 158.795ZM163.608 156.082C163.608 164.984 170.834 172.232 179.711 172.232C188.587 172.232 195.814 164.985 195.814 156.082C195.814 147.18 188.588 139.933 179.711 139.933C170.835 139.933 163.608 147.18 163.608 156.082ZM192.478 156.082C192.478 163.144 186.753 168.885 179.711 168.885C172.669 168.885 166.944 163.144 166.944 156.082C166.944 149.02 172.669 143.279 179.711 143.279C186.753 143.279 192.478 149.02 192.478 156.082Z" fill="#383838" stroke="#FEF1F1" stroke-width="1.4" mask="url(#path-2-inside-1_122_284)"/>
</svg>
