<svg width="287" height="240" viewBox="0 0 287 240" fill="none" xmlns="http://www.w3.org/2000/svg">
<path d="M285.602 166.414C291.271 195.285 279.698 213.033 250.883 219.659C222.069 226.286 196.561 231.965 174.359 236.698C152.158 241.431 129.012 241.076 104.921 235.633C80.8302 230.19 57.0936 217.885 33.7113 198.716C10.3291 179.548 -0.889705 154.464 0.0550333 123.463C0.999772 92.4622 10.9195 65.248 29.8143 41.82C48.7091 18.3921 72.2094 7.26971 100.315 8.45294C128.421 9.63617 154.992 7.50636 180.028 2.0635C205.063 -3.37936 228.8 1.94518 251.237 18.0371C273.675 34.129 283.595 55.6638 280.997 82.6414C278.399 109.619 279.934 137.543 285.602 166.414Z" fill="#A154F2" fill-opacity="0.08"/>
<path fill-rule="evenodd" clip-rule="evenodd" d="M126.204 88.3415C126.236 88.3921 126.267 88.4427 126.293 88.4996C129.499 94.2868 133.015 101.244 133.989 110.756H139.511V93.6355C139.511 92.1808 141.724 92.1808 141.724 93.6355V110.756H146.278V93.6355C146.278 92.1808 148.491 92.1808 148.491 93.6355V110.756H154.013C155.885 92.4277 167.326 83.3831 167.326 74.6802C167.326 61.7967 156.884 51.3548 144.002 51.3548C131.119 51.3548 120.678 61.797 120.678 74.6802C120.678 78.9494 123.567 83.5853 126.204 88.3415ZM109.034 45.2253L108.294 47.5212C107.991 48.4573 107.149 49.0708 106.169 49.0708L103.728 49.0834L105.695 50.5255C106.485 51.101 106.814 52.1004 106.511 53.0301L105.771 55.3514L107.757 53.9346C108.554 53.3527 109.591 53.3527 110.388 53.9346L112.374 55.3514L111.634 53.0301C111.33 52.1004 111.653 51.1011 112.449 50.5255L114.416 49.0834L111.975 49.0708C110.988 49.0708 110.147 48.4573 109.85 47.5212L109.085 45.2126L109.034 45.2253ZM106.194 46.8507L106.934 44.5548C107.599 42.493 110.52 42.493 111.184 44.5548L111.956 46.8697L114.372 46.8634C116.541 46.857 117.433 49.6463 115.687 50.9049L113.721 52.3533L114.473 54.6492C115.144 56.6984 112.785 58.4251 111.033 57.1476L109.047 55.7245L107.099 57.1476C105.347 58.4252 102.988 56.6985 103.658 54.6492L104.398 52.3217L102.444 50.905C100.699 49.64 101.584 46.8571 103.76 46.8634L106.194 46.8507ZM180.57 45.2253L179.83 47.5212C179.527 48.4573 178.686 49.0708 177.705 49.0708L175.264 49.0834L177.231 50.5255C178.021 51.101 178.35 52.1004 178.047 53.0301L177.307 55.3514L179.293 53.9346C180.09 53.3527 181.127 53.3527 181.924 53.9346L183.91 55.3514L183.17 53.0301C182.866 52.1004 183.189 51.1011 183.986 50.5255L185.952 49.0834L183.511 49.0708C182.525 49.0708 181.683 48.4573 181.386 47.5212L180.621 45.2126L180.57 45.2253ZM177.731 46.8507L178.471 44.5548C179.135 42.493 182.056 42.493 182.721 44.5548L183.492 46.8697L185.908 46.8634C188.077 46.857 188.969 49.6463 187.224 50.9049L185.257 52.3533L186.009 54.6492C186.68 56.6984 184.321 58.4251 182.569 57.1476L180.583 55.7245L178.635 57.1476C176.883 58.4252 174.524 56.6985 175.195 54.6492L175.935 52.3217L173.98 50.905C172.235 49.64 173.12 46.8571 175.296 46.8634L177.731 46.8507ZM94.7982 72.6745C93.2803 72.6745 92.5215 74.515 93.5902 75.5839C94.6591 76.6528 96.4995 75.8938 96.4995 74.3759C96.5058 73.4398 95.7406 72.6745 94.7982 72.6745ZM92.0282 71.6056C94.7919 68.8417 99.4847 71.4285 98.6245 75.2423C100.964 77.3168 102.065 80.4413 101.521 83.5468C101.268 84.9825 99.0925 84.603 99.3391 83.1673C99.7186 80.9852 99.0292 78.7843 97.4988 77.2219C95.0069 79.5874 90.8835 77.8165 90.8835 74.3821C90.8772 73.2943 91.3198 72.314 92.0282 71.6056ZM195.932 70.4608C199.41 70.4608 201.169 74.6858 198.702 77.1524C197.197 78.6577 194.775 78.6893 193.232 77.222C191.695 78.7842 191.005 80.9852 191.385 83.1673C191.638 84.603 189.456 84.9825 189.209 83.5468C188.665 80.4413 189.772 77.3168 192.106 75.2424C191.562 72.801 193.415 70.4608 195.932 70.4608ZM197.14 73.1742C196.071 72.1053 194.231 72.8642 194.231 74.3822C194.231 75.9001 196.071 76.659 197.14 75.5902C197.804 74.9198 197.804 73.8383 197.14 73.1742ZM194.041 59.6517C183.694 62.5738 177.18 72.8706 179.052 83.5471C179.305 84.9828 181.481 84.6033 181.228 83.1676C179.558 73.6172 185.383 64.3822 194.636 61.777C196.033 61.3849 195.439 59.2596 194.041 59.6517ZM205.861 46.0154C206.209 44.9402 207.727 44.9402 208.075 46.0154L209.561 50.6263C210.017 52.043 211.288 52.9664 212.774 52.9601L217.619 52.9538C218.744 52.9538 219.225 54.3958 218.302 55.06L214.38 57.8998C213.179 58.7663 212.692 60.2715 213.153 61.6756L214.659 66.2802C215.013 67.3617 213.78 68.2536 212.869 67.5831L208.954 64.7306C207.752 63.8515 206.19 63.8515 204.982 64.7306L201.067 67.5831C200.157 68.2472 198.923 67.3554 199.278 66.2802L200.783 61.6756C201.244 60.2715 200.751 58.7662 199.556 57.8998L195.635 55.06C194.711 54.3959 195.192 52.9538 196.318 52.9538L201.162 52.9601C202.648 52.9601 203.92 52.0367 204.375 50.6263L205.861 46.0154ZM202.276 49.9495C202.117 50.4428 201.681 50.759 201.162 50.7527L196.318 50.7401C193.042 50.7337 191.695 54.9333 194.338 56.8434L198.259 59.6833C198.683 59.9932 198.848 60.4928 198.683 60.9862L197.178 65.5907C196.166 68.6899 199.727 71.2893 202.37 69.3602L206.285 66.5078C206.703 66.2042 207.246 66.2042 207.658 66.5078L211.572 69.3602C214.216 71.2893 217.777 68.6898 216.765 65.5907L215.259 60.9862C215.095 60.4865 215.259 59.9868 215.683 59.6833L219.604 56.8434C222.242 54.9333 220.895 50.7338 217.625 50.7401L212.78 50.7527C212.262 50.7527 211.825 50.4428 211.667 49.9495L210.181 45.3386C209.175 42.2268 204.767 42.2268 203.762 45.3386L202.276 49.9495ZM93.3687 61.7832C91.9647 61.391 92.5655 59.2596 93.9632 59.658C104.304 62.5675 110.824 72.8769 108.952 83.5534C108.699 84.9891 106.523 84.6096 106.776 83.1739C108.446 73.6172 102.634 64.3948 93.3687 61.7832ZM84.2426 45.3391C83.2371 42.2273 78.8289 42.2273 77.8234 45.3391L76.3372 49.95C76.1791 50.4433 75.7427 50.7595 75.2241 50.7532L70.3796 50.7406C67.1036 50.7342 65.7564 54.9338 68.4 56.8439L72.3211 59.6837C72.7449 59.9937 72.9093 60.4933 72.7449 60.9866L71.2397 65.5912C70.2278 68.6904 73.7884 71.2898 76.432 69.3607L80.3468 66.5083C80.7642 66.2047 81.3081 66.2047 81.7192 66.5083L85.6341 69.3607C88.2776 71.2898 91.8383 68.6903 90.8264 65.5912L89.3211 60.9866C89.1567 60.487 89.3211 59.9873 89.7449 59.6837L93.666 56.8439C96.3033 54.9338 94.9562 50.7342 91.6864 50.7406L86.8419 50.7532C86.3233 50.7532 85.8869 50.4433 85.7288 49.95L84.2426 45.3391ZM83.6292 50.6203L82.1429 46.0094C81.7951 44.9342 80.2773 44.9342 79.9294 46.0094L78.4431 50.6203C77.9878 52.037 76.7166 52.9604 75.2303 52.9541L70.3858 52.9478C69.26 52.9478 68.7794 54.3898 69.7027 55.054L73.6239 57.8938C74.8255 58.7603 75.3126 60.2655 74.8508 61.6696L73.3456 66.2742C72.9914 67.3557 74.2247 68.2476 75.1355 67.5771L79.0503 64.7246C80.252 63.8455 81.814 63.8455 83.022 64.7246L86.9369 67.5771C87.8476 68.2412 89.0808 67.3494 88.7267 66.2742L87.2215 61.6696C86.7598 60.2655 87.2468 58.7602 88.4484 57.8938L92.3696 55.054C93.293 54.3899 92.8123 52.9478 91.6866 52.9478L86.8421 52.9541C85.3558 52.9604 84.0846 52.037 83.6292 50.6203ZM145.109 47.1733C145.109 48.628 142.896 48.628 142.896 47.1733V44.1058C142.896 42.6511 145.109 42.6511 145.109 44.1058V47.1733ZM144.002 68.2546C149.947 68.2546 152.945 75.4774 148.739 79.6835C144.534 83.8895 137.311 80.8978 137.311 74.9462C137.305 71.2526 140.303 68.2546 144.002 68.2546ZM147.171 71.7838C148.923 73.5357 148.923 76.3755 147.171 78.1213C144.357 80.9359 139.518 78.9309 139.518 74.9526C139.518 70.9681 144.357 68.9629 147.171 71.7838ZM147.316 63.4287C148.183 63.6817 149.018 64.0232 149.802 64.4596L152.155 62.733C152.597 62.4041 153.211 62.461 153.59 62.8405L156.107 65.3578C156.518 65.7689 156.537 66.4203 156.171 66.8504L154.488 69.1401C154.925 69.9307 155.272 70.7592 155.519 71.6321L158.397 72.0748C158.947 72.1571 159.339 72.6314 159.339 73.169V76.7299C159.339 77.2991 158.909 77.7671 158.359 77.8304L155.519 78.2668C155.272 79.1333 154.925 79.9682 154.488 80.7588L156.215 83.1116C156.544 83.5543 156.487 84.1678 156.107 84.5473L153.59 87.0646C153.179 87.4757 152.528 87.4947 152.098 87.1278L149.808 85.4454C149.024 85.8818 148.189 86.2297 147.316 86.4763L146.873 89.354C146.791 89.9043 146.317 90.2964 145.779 90.2964H142.219C141.453 90.2964 141.169 89.7272 141.087 89.0884L140.688 86.4762C139.822 86.2296 138.987 85.8817 138.196 85.4453L135.844 87.1719C135.401 87.5008 134.788 87.4439 134.408 87.0644L131.891 84.5471C131.48 84.136 131.461 83.4846 131.828 83.0545L133.51 80.7649C133.074 79.9806 132.726 79.1394 132.479 78.2728L129.602 77.8301C129.051 77.7479 128.659 77.2735 128.659 76.7359V73.1751C128.659 72.6059 129.089 72.1378 129.64 72.0746L132.479 71.6382C132.726 70.7717 133.074 69.9368 133.51 69.1461L131.784 66.7934C131.455 66.3506 131.512 65.7371 131.891 65.3576L134.408 62.8403C134.819 62.4292 135.471 62.4103 135.901 62.7771L138.19 64.4596C138.975 64.0231 139.816 63.6753 140.682 63.4286L141.125 60.5509C141.207 60.0007 141.681 59.6085 142.219 59.6085L142.225 59.6148H145.786C146.355 59.6148 146.823 60.0449 146.886 60.5952L147.316 63.4287ZM147.74 65.9144C149.113 66.4836 149.694 67.3059 150.548 66.6544L152.692 65.0795L153.868 66.2559L152.275 68.4317C151.996 68.8112 151.996 69.3109 152.237 69.684C152.547 70.1647 152.812 70.677 153.034 71.2146C153.59 72.5555 153.438 73.5611 154.463 73.713L157.126 74.1241V75.7811C152.736 76.4516 154.172 75.9456 153.034 78.6906C152.464 80.0631 151.642 80.6449 152.294 81.4988L153.869 83.6429L152.692 84.8193L150.517 83.2254C150.137 82.9471 149.637 82.9471 149.264 83.1875C148.784 83.4974 148.271 83.7631 147.734 83.9844C146.393 84.541 145.387 84.3892 145.236 85.4138L144.862 87.8489H143.13L142.756 85.4138C142.598 84.3829 141.599 84.541 140.258 83.9844C138.886 83.4152 138.304 82.593 137.45 83.2444L135.306 84.8193L134.13 83.6429L135.724 81.4671C136.002 81.0876 136.002 80.5879 135.762 80.2148C135.452 79.7341 135.186 79.2218 134.965 78.6842C134.408 77.3433 134.56 76.3377 133.535 76.1858L130.873 75.7747V74.1177C135.262 73.4473 133.826 73.9533 134.965 71.2083C135.534 69.8358 136.356 69.2539 135.705 68.4L134.13 66.2559L135.306 65.0795L137.482 66.6734C137.861 66.9517 138.355 66.9517 138.734 66.7113C139.215 66.4014 139.727 66.1358 140.265 65.9144C141.605 65.3578 142.611 65.5096 142.763 64.485L143.174 61.8223H144.831C145.508 66.2117 144.995 64.7823 147.74 65.9144ZM132.979 119.529H154.856C158.511 119.529 158.511 112.97 154.856 112.97H132.979C129.323 112.97 129.323 119.529 132.979 119.529ZM157.967 120.636C160.927 118.062 160.269 112.034 156.222 110.934C157.133 102.136 160.352 95.5582 163.368 90.0613H202.504C203.282 94.4002 203.516 98.7009 203.244 103.09V103.154C203.263 115.057 207.703 124.879 216.943 132.172L210.112 139.003C209.929 139.186 209.809 139.433 209.79 139.711L209.29 146.991L201.815 151.842C201.252 152.209 201.144 152.993 201.587 153.499L207.361 160.045C204.212 163.587 202.529 167.698 202.877 172.379C203.282 177.837 201.973 179.69 199.759 179.855C196.761 180.076 190.924 177.508 187.034 176.307C181.697 174.656 176.068 173.53 171.401 175.851C166.866 178.103 163.394 183.517 162.262 194.7C142.701 194.826 120.06 194.826 100.473 194.706C107.613 179.855 116.486 147.522 105.013 131.932C96.1847 119.933 92.6556 104.824 95.2929 90.0687H124.645C127.661 95.5522 130.874 102.124 131.791 110.896C127.592 111.882 126.877 118.036 129.881 120.642C126.605 123.482 127.756 130.522 132.993 130.522H134.365V132.501C134.365 135.683 137.679 137.713 140.911 137.713H147.122C150.347 137.713 153.667 135.683 153.667 132.501V130.522H154.875C160.093 130.522 161.243 123.482 157.967 120.636ZM151.441 130.522H136.572V132.501C136.572 134.361 138.906 135.499 140.904 135.499H147.115C149.113 135.499 151.447 134.361 151.447 132.501L151.441 130.522ZM154.856 121.743H132.979C129.324 121.743 129.324 128.302 132.979 128.302H154.856C158.511 128.308 158.511 121.743 154.856 121.743ZM164.602 87.8476H203.426C203.945 87.8476 204.407 88.2145 204.514 88.7394C205.33 92.9074 205.678 97.1703 205.539 101.452C205.52 102.072 205.488 102.66 205.457 103.211C205.482 109.13 206.639 114.418 208.935 119.073C211.224 123.709 214.652 127.732 219.212 131.128C219.845 131.565 219.889 132.368 219.408 132.849L211.977 140.28L211.471 147.693C211.446 148.028 211.275 148.35 210.972 148.547L204.103 152.999L209.662 159.299C210.073 159.729 210.073 160.405 209.656 160.836C206.513 164.074 204.767 167.805 205.096 172.22C205.621 179.342 203.49 181.79 199.929 182.055C196.299 182.321 190.512 179.683 186.401 178.412C181.5 176.9 176.39 175.838 172.393 177.824C168.389 179.81 165.328 184.939 164.386 195.881H164.38C164.329 196.443 163.861 196.886 163.286 196.886C152.091 196.962 141.328 197 130.994 197C120.679 197 109.933 196.962 98.7585 196.886C97.8478 196.905 97.3545 195.988 97.7213 195.28C102.148 186.678 106.892 172.32 108.049 158.805C108.903 148.882 107.821 139.452 103.236 133.221C94.989 122.013 91.1437 108.194 92.5036 94.1721C92.6807 92.3316 92.9463 90.5354 93.2815 88.7835C93.3574 88.2458 93.819 87.8347 94.3756 87.8347H123.418C120.724 83.0215 118.472 78.9673 118.472 74.6665C118.472 60.5623 129.907 49.1278 144.01 49.1278C158.113 49.1278 169.547 60.563 169.547 74.6665C169.54 78.9801 167.296 83.0346 164.602 87.8476ZM171.204 57.8433L169.642 58.7477C168.384 59.4751 169.484 61.3788 170.743 60.6578L172.305 59.7534C173.563 59.0324 172.463 57.1223 171.204 57.8433ZM160.276 43.5556C161.003 42.297 162.913 43.4038 162.186 44.6624L160.383 47.7869C159.656 49.0455 157.746 47.9387 158.473 46.6801L160.276 43.5556ZM115.702 59.76L117.264 60.6645C118.516 61.3855 119.623 59.4754 118.364 58.7544L116.802 57.8499C115.544 57.1226 114.443 59.0326 115.702 59.76ZM125.062 44.6565C124.341 43.3978 126.251 42.2974 126.972 43.556L128.774 46.6804C129.495 47.939 127.585 49.0395 126.864 47.7809L125.062 44.6565Z" fill="#373737"/>
</svg>
