<svg width="265" height="251" viewBox="0 0 265 251" fill="none" xmlns="http://www.w3.org/2000/svg">
<path d="M251.484 163.467C236.842 182.276 221.171 196.269 204.47 205.444C187.769 214.62 167.979 226.433 145.101 240.884C122.223 255.335 99.8026 254.303 77.8396 237.787C55.8766 221.272 35.0576 200.054 15.3824 174.133C-4.29276 148.213 -5.0935 121.604 12.9802 94.3071C31.0539 67.0103 51.301 43.9571 73.7215 25.1476C96.1421 6.33801 121.88 -1.91985 150.935 0.373997C179.99 2.66785 203.097 14.3665 220.256 35.4699C237.414 56.5733 250.569 78.4796 259.72 101.189C268.872 123.898 266.126 144.657 251.484 163.467Z" fill="#6154F2" fill-opacity="0.08"/>
<mask id="path-2-inside-1_122_268" fill="white">
<path d="M127.342 170.87V161.802C127.342 151.934 113.793 142.12 103.899 134.949C101.677 133.339 99.5794 131.823 97.9332 130.511C95.1581 128.333 91.2182 128.674 88.7878 131.143L79.6781 114.099C78.8105 112.476 77.3665 111.289 75.6075 110.758C73.8545 110.221 71.9945 110.412 70.3662 111.289C67.4485 112.888 66.2956 116.408 67.4307 120.262L76.1839 149.614C76.3027 150.014 76.5523 150.366 76.891 150.61L97.7552 165.758V170.865C96.7509 170.912 95.9427 171.73 95.9427 172.75V187.08C95.9427 188.13 96.7925 188.983 97.8384 188.983C98.8843 188.983 99.734 188.13 99.734 187.08V174.653H125.352V187.08C125.352 188.13 126.202 188.983 127.248 188.983C128.294 188.983 129.143 188.13 129.143 187.08V172.75C129.155 171.736 128.346 170.918 127.342 170.87ZM101.558 170.852V164.79C101.558 164.743 101.534 164.695 101.529 164.647C101.517 164.516 101.487 164.391 101.451 164.26C101.416 164.146 101.386 164.033 101.332 163.931C101.279 163.824 101.208 163.735 101.136 163.639C101.053 163.538 100.976 163.442 100.875 163.353C100.839 163.317 100.815 163.275 100.774 163.245L79.648 147.913L71.0791 119.187C70.8473 118.394 70.2352 115.715 72.1843 114.653C72.9093 114.265 73.7412 114.182 74.5257 114.42C75.3102 114.659 75.9579 115.184 76.3441 115.912L86.8443 135.563C86.7255 137.74 87.6109 139.93 89.4293 141.356L105.558 154.129C106.378 154.779 107.572 154.642 108.226 153.813C108.874 152.989 108.737 151.79 107.911 151.134L91.7779 138.355C91.142 137.86 90.738 137.132 90.6488 136.309C90.5537 135.48 90.7796 134.668 91.2787 134.03C92.3127 132.723 94.2975 132.497 95.6049 133.511C97.3044 134.865 99.4377 136.404 101.69 138.045C110.402 144.357 123.558 153.89 123.558 161.807V170.858H101.559L101.558 170.852ZM194.605 111.295C192.989 110.424 191.135 110.239 189.376 110.77C187.617 111.301 186.173 112.488 185.305 114.111L176.225 131.173C175.131 130.046 173.717 129.306 172.125 129.115C170.294 128.888 168.506 129.401 167.091 130.529C165.469 131.818 163.389 133.315 161.19 134.908C151.255 142.091 137.646 151.923 137.646 161.814V170.888C136.659 170.959 135.881 171.759 135.881 172.767V187.097C135.881 188.147 136.731 189 137.777 189C138.822 189 139.672 188.147 139.672 187.097V174.67H165.243V187.097C165.243 188.147 166.093 189 167.139 189C168.185 189 169.034 188.147 169.034 187.097V172.767C169.034 171.747 168.232 170.93 167.222 170.882V165.775L188.086 150.628C188.425 150.383 188.674 150.031 188.793 149.631L197.552 120.273C198.711 116.329 197.582 112.894 194.605 111.295ZM193.916 119.176L185.347 147.907L164.221 163.251C164.179 163.281 164.161 163.329 164.12 163.358C164.019 163.442 163.941 163.537 163.858 163.645C163.781 163.74 163.716 163.83 163.662 163.937C163.609 164.039 163.573 164.152 163.543 164.265C163.508 164.396 163.478 164.516 163.466 164.653C163.46 164.701 163.436 164.742 163.436 164.796V170.858L141.443 170.852V161.801C141.443 153.861 154.659 144.31 163.407 137.985C165.642 136.369 167.751 134.847 169.451 133.505C170.735 132.479 172.69 132.717 173.718 134.006C174.229 134.662 174.455 135.474 174.359 136.303C174.264 137.12 173.866 137.848 173.219 138.355L157.09 151.128C156.27 151.778 156.127 152.978 156.775 153.807C157.429 154.63 158.617 154.773 159.443 154.123L175.566 141.356C177.366 139.942 178.252 137.795 178.157 135.647L188.663 115.905C189.049 115.184 189.691 114.653 190.481 114.414C191.271 114.175 192.103 114.259 192.822 114.647C194.766 115.703 194.153 118.388 193.916 119.176ZM172.291 85.1349C172.398 75.6731 168.387 68.0541 161.571 64.7552C156.9 62.4941 147 60.4896 132.517 71.7949C118.012 60.4838 108.106 62.4942 103.429 64.7611C96.6074 68.0663 92.6022 75.6845 92.7151 85.147C92.8874 99.9303 103.227 120.364 131.733 133.369C131.982 133.482 132.249 133.542 132.517 133.542C132.784 133.542 133.052 133.488 133.301 133.369C161.795 120.351 172.125 99.9187 172.291 85.1349ZM132.517 129.532C106.222 117.254 96.6611 98.5748 96.506 85.0921C96.4168 77.1516 99.6198 70.8279 105.081 68.1854C106.965 67.2726 109.062 66.8192 111.326 66.8192C117.209 66.8192 124.186 69.8678 131.323 75.6964C132.025 76.2691 133.023 76.2632 133.718 75.6964C143.583 67.6307 153.139 64.8923 159.925 68.1794C165.386 70.8223 168.589 77.1401 168.5 85.0861C168.345 98.5689 158.796 117.253 132.519 129.532L132.517 129.532Z"/>
</mask>
<path d="M127.342 170.87V161.802C127.342 151.934 113.793 142.12 103.899 134.949C101.677 133.339 99.5794 131.823 97.9332 130.511C95.1581 128.333 91.2182 128.674 88.7878 131.143L79.6781 114.099C78.8105 112.476 77.3665 111.289 75.6075 110.758C73.8545 110.221 71.9945 110.412 70.3662 111.289C67.4485 112.888 66.2956 116.408 67.4307 120.262L76.1839 149.614C76.3027 150.014 76.5523 150.366 76.891 150.61L97.7552 165.758V170.865C96.7509 170.912 95.9427 171.73 95.9427 172.75V187.08C95.9427 188.13 96.7925 188.983 97.8384 188.983C98.8843 188.983 99.734 188.13 99.734 187.08V174.653H125.352V187.08C125.352 188.13 126.202 188.983 127.248 188.983C128.294 188.983 129.143 188.13 129.143 187.08V172.75C129.155 171.736 128.346 170.918 127.342 170.87ZM101.558 170.852V164.79C101.558 164.743 101.534 164.695 101.529 164.647C101.517 164.516 101.487 164.391 101.451 164.26C101.416 164.146 101.386 164.033 101.332 163.931C101.279 163.824 101.208 163.735 101.136 163.639C101.053 163.538 100.976 163.442 100.875 163.353C100.839 163.317 100.815 163.275 100.774 163.245L79.648 147.913L71.0791 119.187C70.8473 118.394 70.2352 115.715 72.1843 114.653C72.9093 114.265 73.7412 114.182 74.5257 114.42C75.3102 114.659 75.9579 115.184 76.3441 115.912L86.8443 135.563C86.7255 137.74 87.6109 139.93 89.4293 141.356L105.558 154.129C106.378 154.779 107.572 154.642 108.226 153.813C108.874 152.989 108.737 151.79 107.911 151.134L91.7779 138.355C91.142 137.86 90.738 137.132 90.6488 136.309C90.5537 135.48 90.7796 134.668 91.2787 134.03C92.3127 132.723 94.2975 132.497 95.6049 133.511C97.3044 134.865 99.4377 136.404 101.69 138.045C110.402 144.357 123.558 153.89 123.558 161.807V170.858H101.559L101.558 170.852ZM194.605 111.295C192.989 110.424 191.135 110.239 189.376 110.77C187.617 111.301 186.173 112.488 185.305 114.111L176.225 131.173C175.131 130.046 173.717 129.306 172.125 129.115C170.294 128.888 168.506 129.401 167.091 130.529C165.469 131.818 163.389 133.315 161.19 134.908C151.255 142.091 137.646 151.923 137.646 161.814V170.888C136.659 170.959 135.881 171.759 135.881 172.767V187.097C135.881 188.147 136.731 189 137.777 189C138.822 189 139.672 188.147 139.672 187.097V174.67H165.243V187.097C165.243 188.147 166.093 189 167.139 189C168.185 189 169.034 188.147 169.034 187.097V172.767C169.034 171.747 168.232 170.93 167.222 170.882V165.775L188.086 150.628C188.425 150.383 188.674 150.031 188.793 149.631L197.552 120.273C198.711 116.329 197.582 112.894 194.605 111.295ZM193.916 119.176L185.347 147.907L164.221 163.251C164.179 163.281 164.161 163.329 164.12 163.358C164.019 163.442 163.941 163.537 163.858 163.645C163.781 163.74 163.716 163.83 163.662 163.937C163.609 164.039 163.573 164.152 163.543 164.265C163.508 164.396 163.478 164.516 163.466 164.653C163.46 164.701 163.436 164.742 163.436 164.796V170.858L141.443 170.852V161.801C141.443 153.861 154.659 144.31 163.407 137.985C165.642 136.369 167.751 134.847 169.451 133.505C170.735 132.479 172.69 132.717 173.718 134.006C174.229 134.662 174.455 135.474 174.359 136.303C174.264 137.12 173.866 137.848 173.219 138.355L157.09 151.128C156.27 151.778 156.127 152.978 156.775 153.807C157.429 154.63 158.617 154.773 159.443 154.123L175.566 141.356C177.366 139.942 178.252 137.795 178.157 135.647L188.663 115.905C189.049 115.184 189.691 114.653 190.481 114.414C191.271 114.175 192.103 114.259 192.822 114.647C194.766 115.703 194.153 118.388 193.916 119.176ZM172.291 85.1349C172.398 75.6731 168.387 68.0541 161.571 64.7552C156.9 62.4941 147 60.4896 132.517 71.7949C118.012 60.4838 108.106 62.4942 103.429 64.7611C96.6074 68.0663 92.6022 75.6845 92.7151 85.147C92.8874 99.9303 103.227 120.364 131.733 133.369C131.982 133.482 132.249 133.542 132.517 133.542C132.784 133.542 133.052 133.488 133.301 133.369C161.795 120.351 172.125 99.9187 172.291 85.1349ZM132.517 129.532C106.222 117.254 96.6611 98.5748 96.506 85.0921C96.4168 77.1516 99.6198 70.8279 105.081 68.1854C106.965 67.2726 109.062 66.8192 111.326 66.8192C117.209 66.8192 124.186 69.8678 131.323 75.6964C132.025 76.2691 133.023 76.2632 133.718 75.6964C143.583 67.6307 153.139 64.8923 159.925 68.1794C165.386 70.8223 168.589 77.1401 168.5 85.0861C168.345 98.5689 158.796 117.253 132.519 129.532L132.517 129.532Z" fill="#383838" stroke="#F2F1FE" stroke-width="1.4" mask="url(#path-2-inside-1_122_268)"/>
</svg>
